<svg height="5022" width="720" xmlns="http://www.w3.org/2000/svg">
<rect height="5022" fill="#555" width="720"></rect>
<text fill="#7f7" font-family="Courier New" font-size="12" xml:space="preserve">
<tspan x="10" y="26">2017-02-20 17:27:05 +0800</tspan>
<tspan x="10" y="42">'- rename dom-element #outputTextareaStdout -&gt; #outputTextareaStdout1</tspan>
<tspan x="10" y="58">'</tspan>
<tspan x="10" y="74"></tspan>
<tspan x="10" y="90">2017-02-20 16:15:01 +0800</tspan>
<tspan x="10" y="106">normalize readme</tspan>
<tspan x="10" y="122"></tspan>
<tspan x="10" y="138">2017-02-20 15:53:51 +0800</tspan>
<tspan x="10" y="154">normalize readme</tspan>
<tspan x="10" y="170"></tspan>
<tspan x="10" y="186">2017-02-20 15:25:04 +0800</tspan>
<tspan x="10" y="202">normalize readme</tspan>
<tspan x="10" y="218"></tspan>
<tspan x="10" y="234">2017-02-20 14:49:33 +0800</tspan>
<tspan x="10" y="250">normalize readme</tspan>
<tspan x="10" y="266"></tspan>
<tspan x="10" y="282">2017-02-20 07:22:41 +0800</tspan>
<tspan x="10" y="298">slushy</tspan>
<tspan x="10" y="314"></tspan>
<tspan x="10" y="330">2017-02-20 04:31:59 +0800</tspan>
<tspan x="10" y="346">update lib.utility2</tspan>
<tspan x="10" y="362"></tspan>
<tspan x="10" y="378">2017-02-19 00:15:20 +0800</tspan>
<tspan x="10" y="394">- npm publish 2017.2.17</tspan>
<tspan x="10" y="410">- do not auto-uglify js-assets</tspan>
<tspan x="10" y="426">- revamp README.md</tspan>
<tspan x="10" y="442">- update lib.utility2</tspan>
<tspan x="10" y="458"></tspan>
<tspan x="10" y="474">2017-02-06 21:12:28 +0800</tspan>
<tspan x="10" y="490">- npm publish 2017.2.6</tspan>
<tspan x="10" y="506">- allow swagger-json url to be changed</tspan>
<tspan x="10" y="522">- allow swagger-ui operation to appear in multiple tags</tspan>
<tspan x="10" y="538">- rename assets.lib.swgg.* to assets.swgg.*</tspan>
<tspan x="10" y="554">- merge files lib.* into standaalone file assets.swgg.rollup.js</tspan>
<tspan x="10" y="570">- merge files lib.swgg.* into lib.swgg.js</tspan>
<tspan x="10" y="586"></tspan>
<tspan x="10" y="602">2017-01-12 12:41:11 +0800</tspan>
<tspan x="10" y="618">- npm publish 2017.1.12</tspan>
<tspan x="10" y="634">- update files lib.utility2.*</tspan>
<tspan x="10" y="650">- update documentation</tspan>
<tspan x="10" y="666"></tspan>
<tspan x="10" y="682">2016-12-31 19:25:20 +0800</tspan>
<tspan x="10" y="698">- npm publish 2016.12.30</tspan>
<tspan x="10" y="714">- revamp swgg.ui.js</tspan>
<tspan x="10" y="730"></tspan>
<tspan x="10" y="746">2016-12-26 15:05:22 +0800</tspan>
<tspan x="10" y="762">- rename file lib.swgg.json-schema.json</tspan>
<tspan x="10" y="778">- rename file lib.swgg.petstore.json</tspan>
<tspan x="10" y="794">- rename file lib.swgg.schema.json</tspan>
<tspan x="10" y="810">- rename file lib.swgg.ui.js</tspan>
<tspan x="10" y="826"></tspan>
<tspan x="10" y="842">2016-12-26 12:13:11 +0800</tspan>
<tspan x="10" y="858">- npm publish 2016.12.25</tspan>
<tspan x="10" y="874">- add spec-compliant collectionFormat parameter for arrays</tspan>
<tspan x="10" y="890">- merge github-crud into this package</tspan>
<tspan x="10" y="906">- add heroku-postbuild npm-script</tspan>
<tspan x="10" y="922"></tspan>
<tspan x="10" y="938">2016-12-11 12:22:05 +0800</tspan>
<tspan x="10" y="954">- fix shBuildDoc accidentally adding coverage to doc</tspan>
<tspan x="10" y="970"></tspan>
<tspan x="10" y="986">2016-12-11 12:05:29 +0800</tspan>
<tspan x="10" y="1002">- npm publish 2016.12.1</tspan>
<tspan x="10" y="1018">- merge utility2 and swgg namespace into local namespace</tspan>
<tspan x="10" y="1034">- revamp user-login / user-logout to use standard json-web-encryption token</tspan>
<tspan x="10" y="1050"></tspan>
<tspan x="10" y="1066">2016-11-30 17:45:55 +0800</tspan>
<tspan x="10" y="1082">- rename package from swagger-lite -&gt; swgg</tspan>
<tspan x="10" y="1098"></tspan>
<tspan x="10" y="1114">2016-11-30 02:48:10 +0800</tspan>
<tspan x="10" y="1130">- npm publish 2016.11.2</tspan>
<tspan x="10" y="1146">- merge swgg.middlewareJsonpStateInit into utility2._middlewareJsonpStateInit</tspan>
<tspan x="10" y="1162">- db - fix persistence-cancel handling-behavior</tspan>
<tspan x="10" y="1178">- utility2 - add env npm_package_nameAlias</tspan>
<tspan x="10" y="1194"></tspan>
<tspan x="10" y="1210">2016-11-23 11:55:35 +0800</tspan>
<tspan x="10" y="1226">- npm publish 2016.11.1</tspan>
<tspan x="10" y="1242">- make this package dependency-less</tspan>
<tspan x="10" y="1258">- rename files index.* -&gt; lib.swgg.*</tspan>
<tspan x="10" y="1274">- rename field _timeModified -&gt; _timeUpdated</tspan>
<tspan x="10" y="1290">- fix cdn-links</tspan>
<tspan x="10" y="1306"></tspan>
<tspan x="10" y="1322">2016-11-21 10:22:45 +0800</tspan>
<tspan x="10" y="1338">- npm publish 2016.10.2</tspan>
<tspan x="10" y="1354">- temporary fix for chrome render bug - https://bugs.chromium.org/p/chromium/issues/detail?id=66\</tspan>
<tspan x="10" y="1370">0671</tspan>
<tspan x="10" y="1386">- rename api-suffix *KeyUnique -&gt; *Id</tspan>
<tspan x="10" y="1402">- rename field createdAt -&gt; _timeCreated</tspan>
<tspan x="10" y="1418">- rename field updatedAt -&gt; _timeModified</tspan>
<tspan x="10" y="1434"></tspan>
<tspan x="10" y="1450">2016-10-17 21:10:49 +0800</tspan>
<tspan x="10" y="1466">- npm publish 2016.10.1</tspan>
<tspan x="10" y="1482">- migrate db from nedb-lite to db-lite</tspan>
<tspan x="10" y="1498">- streamline tests</tspan>
<tspan x="10" y="1514"></tspan>
<tspan x="10" y="1530">2016-10-02 12:04:31 +0800</tspan>
<tspan x="10" y="1546">- npm publish 2016.9.1</tspan>
<tspan x="10" y="1562">- update utility2 dependency</tspan>
<tspan x="10" y="1578"></tspan>
<tspan x="10" y="1594">2016-08-27 11:05:16 +0800</tspan>
<tspan x="10" y="1610">- npm publish 2016.8.1</tspan>
<tspan x="10" y="1626">- allow file export / import of nedb-database</tspan>
<tspan x="10" y="1642">- migrate nedb-api from swagger-lite to utility2</tspan>
<tspan x="10" y="1658">- rename collectDoc to dbRow and collection to dbTable</tspan>
<tspan x="10" y="1674"></tspan>
<tspan x="10" y="1690">2016-08-07 22:39:06 +0200</tspan>
<tspan x="10" y="1706">- npm publish 2016.7.2</tspan>
<tspan x="10" y="1722">- deploy standalone-app to heroku</tspan>
<tspan x="10" y="1738">- rename local.utility2.middlewareJsonpStateGet to local.utility2.middlewareJsonpStateInit</tspan>
<tspan x="10" y="1754"></tspan>
<tspan x="10" y="1770">2016-07-31 15:02:39 +0200</tspan>
<tspan x="10" y="1786">- npm publish 2016.7.1</tspan>
<tspan x="10" y="1802">- replace lib bcrypt and lib cryptojs with lib sjcl</tspan>
<tspan x="10" y="1818"></tspan>
<tspan x="10" y="1834">2016-07-01 03:17:59 +0200</tspan>
<tspan x="10" y="1850">- npm publish 2016.5.4</tspan>
<tspan x="10" y="1866">- fix internal tests for heroku backend</tspan>
<tspan x="10" y="1882"></tspan>
<tspan x="10" y="1898">2016-06-15 17:19:02 +0300</tspan>
<tspan x="10" y="1914">- npm publish 2016.5.2</tspan>
<tspan x="10" y="1930">- deploy standalone app to heroku test-server</tspan>
<tspan x="10" y="1946">- remove nedb-lite dependency</tspan>
<tspan x="10" y="1962">- add minified asset assets.app.min.js</tspan>
<tspan x="10" y="1978">- add 'run internal test' button in webpage</tspan>
<tspan x="10" y="1994">- add env var npm_config_mode_backend to disable utility2.serverLocalUrlTest</tspan>
<tspan x="10" y="2010"></tspan>
<tspan x="10" y="2026">2016-06-12 03:58:24 +0300</tspan>
<tspan x="10" y="2042">- npm publish 2016.5.2</tspan>
<tspan x="10" y="2058">- add standalone-app download-link in test-page</tspan>
<tspan x="10" y="2074">- ui - add button to reset nedb database</tspan>
<tspan x="10" y="2090"></tspan>
<tspan x="10" y="2106">2016-06-08 19:00:37 +0300</tspan>
<tspan x="10" y="2122">- npm publish 2016.5.1</tspan>
<tspan x="10" y="2138">- merge admin-ui into swagger-ui</tspan>
<tspan x="10" y="2154">- ui - re-implement reload feature</tspan>
<tspan x="10" y="2170">- move all swagger-backend-config into top-level swagger-property 'x-swgg-apiDict'</tspan>
<tspan x="10" y="2186">- remove unused postinstall script</tspan>
<tspan x="10" y="2202"></tspan>
<tspan x="10" y="2218">2016-05-30 15:00:02 +0300</tspan>
<tspan x="10" y="2234">- npm publish 2016.4.3</tspan>
<tspan x="10" y="2250">- datatable - add datatable resource-view</tspan>
<tspan x="10" y="2266">- datatable - add pagination</tspan>
<tspan x="10" y="2282">- datatable - add row deletion</tspan>
<tspan x="10" y="2298"></tspan>
<tspan x="10" y="2314">2016-05-20 17:44:04 +0300</tspan>
<tspan x="10" y="2330">- npm publish 2016.4.2</tspan>
<tspan x="10" y="2346">- replace swagger-tools dependency with function swgg.validateBySwagger</tspan>
<tspan x="10" y="2362">- validation - validate schema.default</tspan>
<tspan x="10" y="2378">- validation - validate schema.anyOf</tspan>
<tspan x="10" y="2394">- validation - replace x-swgg-inherit with schema.allOf</tspan>
<tspan x="10" y="2410">- rename operation crudFile* to file*</tspan>
<tspan x="10" y="2426">- rename operation crudUser* to user*</tspan>
<tspan x="10" y="2442">- add file lib.swagger.schema.json from http://swagger.io/v2/schema.json</tspan>
<tspan x="10" y="2458">- add extra constraints to function swgg.collectDocListRandomCreate</tspan>
<tspan x="10" y="2474">- ui - input element's valueEncoded can only be '', null, or undefined</tspan>
<tspan x="10" y="2490">- replace function swgg.schemaDereference with swgg.schemaNormalize</tspan>
<tspan x="10" y="2506"></tspan>
<tspan x="10" y="2522">2016-05-12 21:06:05 +0300</tspan>
<tspan x="10" y="2538">- npm publish 2016.4.1</tspan>
<tspan x="10" y="2554">- fix bug when a document's id is zero</tspan>
<tspan x="10" y="2570">- streamline ui</tspan>
<tspan x="10" y="2586">- remove Backbone, Handlebars, and jQuery dependencies from lib.swagger-ui.js</tspan>
<tspan x="10" y="2602">- enable multiple api endpoints with same operationId, but unique keyUnique</tspan>
<tspan x="10" y="2618">- add hooks middlewareCrudPre and middlewareCrudPost</tspan>
<tspan x="10" y="2634">- merge api crudCreateOrReplaceOne into crudCreateOrReplaceOneByKeyUnique</tspan>
<tspan x="10" y="2650">- merge api crudCreateOrUpdateOne and crudCreateOrUpdateOneByKeyUnique into crudUpdateOneByKeyUn\</tspan>
<tspan x="10" y="2666">ique</tspan>
<tspan x="10" y="2682"></tspan>
<tspan x="10" y="2698">2016-04-28 13:18:23 +0300</tspan>
<tspan x="10" y="2714">- npm publish 2016.3.1</tspan>
<tspan x="10" y="2730">- implement api GET /user/login</tspan>
<tspan x="10" y="2746">- implement api GET /user/logout</tspan>
<tspan x="10" y="2762">- add api crudUserLogout</tspan>
<tspan x="10" y="2778">- encode arrays as json-string in query-param</tspan>
<tspan x="10" y="2794">- fix crudFileGetOneByKeyUnique for serverLocal</tspan>
<tspan x="10" y="2810">- fix 0 statusCode in userLoginByPassword and userLogout api</tspan>
<tspan x="10" y="2826">- remove external dependency animate.css</tspan>
<tspan x="10" y="2842"></tspan>
<tspan x="10" y="2858">2016-04-20 01:32:39 +0300</tspan>
<tspan x="10" y="2874">- npm publish 2016.2.3</tspan>
<tspan x="10" y="2890">- split swgg.middlewareValidate into swgg.middlewareRouter and swgg.middlewareValidate</tspan>
<tspan x="10" y="2906">- merge collection BuiltinFile into collection TestModelCrud in example.js</tspan>
<tspan x="10" y="2922">- merge collection BuiltinUser into collection User in example.js</tspan>
<tspan x="10" y="2938">- add 'multipleOf' number-constraint to function swgg.collectDocRandomCreate</tspan>
<tspan x="10" y="2954">- add function swgg.collectDocListRandomCreate</tspan>
<tspan x="10" y="2970"></tspan>
<tspan x="10" y="2986">2016-04-03 18:55:13 +0800</tspan>
<tspan x="10" y="3002">- npm publish 2016.2.2</tspan>
<tspan x="10" y="3018">- implement api POST /pet/{petId}/uploadImage</tspan>
<tspan x="10" y="3034">- fix Uncaught TypeError: this.trigger is not a function</tspan>
<tspan x="10" y="3050">- fix curl example missing body</tspan>
<tspan x="10" y="3066">- add multipart/form-data ability to swgg.apiAjax</tspan>
<tspan x="10" y="3082">- add function swgg.collectDocRandomCreate to create random collectDoc</tspan>
<tspan x="10" y="3098">- merge crudFileUploadOneByForm into crudFileUploadManyByForm</tspan>
<tspan x="10" y="3114">- add function swgg.urlBaseGet</tspan>
<tspan x="10" y="3130">- cover example.js</tspan>
<tspan x="10" y="3146"></tspan>
<tspan x="10" y="3162">2016-03-19 17:17:40 +0800</tspan>
<tspan x="10" y="3178">- npm publish 2016.2.1</tspan>
<tspan x="10" y="3194">- cleanup Backbone and Handlebars in lib.swagger-ui.js</tspan>
<tspan x="10" y="3210">- fix file-upload for serverLocal</tspan>
<tspan x="10" y="3226">- add function swgg.jwtEncodedDecodeAndDecrypt, swgg.nedbReset</tspan>
<tspan x="10" y="3242">- use rolled-up asset /assets.utility2.rollup.js</tspan>
<tspan x="10" y="3258">- move request.swgg* objects to namespace request.swgg</tspan>
<tspan x="10" y="3274"></tspan>
<tspan x="10" y="3290">2016-03-15 15:32:30 +0800</tspan>
<tspan x="10" y="3306">- npm publish 2016.1.6</tspan>
<tspan x="10" y="3322">- admin-ui - fix datatables crashing when rows are empty</tspan>
<tspan x="10" y="3338">- add api crudFileGetOneByKeyUnique, crudFileUploadManyByForm, crudFileUploadOneByForm</tspan>
<tspan x="10" y="3354">- add multipart/form-data handling in swgg.middlewareBodyParse</tspan>
<tspan x="10" y="3370">- allow jsonapi's response.data to be an empty array</tspan>
<tspan x="10" y="3386">- add '_Builtin' prefix to swagger-lite's builtin swagger-definition names</tspan>
<tspan x="10" y="3402">- do not send readonly properties in swgg.apiDict clients</tspan>
<tspan x="10" y="3418">- in swgg.validateByPropertyDef, add regex pattern validation according to http://json-schema.or\</tspan>
<tspan x="10" y="3434">g/latest/json-schema-validation.html#anchor33</tspan>
<tspan x="10" y="3450">- admin-ui add x-queryRange ui</tspan>
<tspan x="10" y="3466"></tspan>
<tspan x="10" y="3482">2016-03-09 00:16:59 +0800</tspan>
<tspan x="10" y="3498">- npm publish 2016.1.5</tspan>
<tspan x="10" y="3514">- admin-ui - fix input validation bugs</tspan>
<tspan x="10" y="3530">- replace swgg.api with swgg.apiDict</tspan>
<tspan x="10" y="3546"></tspan>
<tspan x="10" y="3562">2016-03-08 15:11:20 +0800</tspan>
<tspan x="10" y="3578">- consolidate browser state-init into jsonp call stateInit</tspan>
<tspan x="10" y="3594">- admin-ui - add swagger-form validation to form-inputs</tspan>
<tspan x="10" y="3610">- admin-ui - implement date-time/dropdown/boolean form-inputs</tspan>
<tspan x="10" y="3626">- admin-ui - integrate oauth-jwt user-login</tspan>
<tspan x="10" y="3642">- admin-ui - merge all dt state-info into swgg.dt object</tspan>
<tspan x="10" y="3658">- admin-ui - keyUnique crud operations can use arbitray keys, instead of only 'id' key</tspan>
<tspan x="10" y="3674">- admin-ui - add x-title option for rendering labels for swagger params and property inputs</tspan>
<tspan x="10" y="3690">- admin-ui - crud-keyUnique operations can depend on arbitrary unique-key (previously tied to 'i\</tspan>
<tspan x="10" y="3706">d' key)</tspan>
<tspan x="10" y="3722">- rename swgg.apiUpdate to swgg.apiDictUpdate</tspan>
<tspan x="10" y="3738">- flatten swgg.cacheDict into swgg</tspan>
<tspan x="10" y="3754"></tspan>
<tspan x="10" y="3770">2016-03-03 14:57:31 +0800</tspan>
<tspan x="10" y="3786">- npm publish 2016.1.4</tspan>
<tspan x="10" y="3802">- add function swgg.isNullOrUndefined</tspan>
<tspan x="10" y="3818">- add boolean/integer/number/string schema-properties as params in crudGetManyByQuery</tspan>
<tspan x="10" y="3834">- admin-ui - implement boolean/date-time/enum input types</tspan>
<tspan x="10" y="3850">- admin-ui - implement crud CREATE</tspan>
<tspan x="10" y="3866">- allow arbitrary name for body-param in local.swgg.middlewareCrud</tspan>
<tspan x="10" y="3882">- add 'x-notRequired' options to pathObject params to override 'required' option</tspan>
<tspan x="10" y="3898">- add 'x-validateUnusedDefinition' option in swgg.validateBySwagger to ignore unused definitions</tspan>
<tspan x="10" y="3914"></tspan>
<tspan x="10" y="3930">2016-02-29 19:54:22 +0800</tspan>
<tspan x="10" y="3946">- npm publish 2016.1.3</tspan>
<tspan x="10" y="3962">- add dependency nedb-lite</tspan>
<tspan x="10" y="3978">- admin-ui - integrate serverLocal into admin-ui</tspan>
<tspan x="10" y="3994">- use jsonp to init default browser-state instead of with hard-coded template</tspan>
<tspan x="10" y="4010">- split index.js into index.js and lib.admin-ui.js</tspan>
<tspan x="10" y="4026">- admin-ui - hook utility2.assert and utility2.onErrorDefault with bootstrap alert;</tspan>
<tspan x="10" y="4042">- admin-ui - add crud UPDATE</tspan>
<tspan x="10" y="4058">- admin-ui - show swagger-property-type in thead / tfoot / form input</tspan>
<tspan x="10" y="4074">- add keyAlias param in operationId</tspan>
<tspan x="10" y="4090">- swgg.apiUpdate will now error-log schema-validation-errors instead of throwing them</tspan>
<tspan x="10" y="4106">- add file-server</tspan>
<tspan x="10" y="4122">- add admin-ui crud DELETE</tspan>
<tspan x="10" y="4138"></tspan>
<tspan x="10" y="4154">2016-02-22 11:51:07 +0800</tspan>
<tspan x="10" y="4170">- npm publish 2016.1.2</tspan>
<tspan x="10" y="4186">- work-in-progress on experimental, swagger-based, admin-ui</tspan>
<tspan x="10" y="4202">- add query macro for crudGetManyByQuery</tspan>
<tspan x="10" y="4218">- add crud-tests for petstore api</tspan>
<tspan x="10" y="4234">- move static assets to /external dir, which will be fetched during postinstall</tspan>
<tspan x="10" y="4250"></tspan>
<tspan x="10" y="4266">2016-02-14 21:43:25 +0800</tspan>
<tspan x="10" y="4282">- npm publish 2016.1.1</tspan>
<tspan x="10" y="4298">- implement petstore backend with nedb</tspan>
<tspan x="10" y="4314">- remove swagger-ui-lite dependency</tspan>
<tspan x="10" y="4330">- fix missing createdAt field in nedb update-replace</tspan>
<tspan x="10" y="4346">- add default-crud-api crudCreateOrReplaceMany, crudCreateOrUpdateOne, and crudCreateOrUpdateOne\</tspan>
<tspan x="10" y="4362">ByKeyUnique</tspan>
<tspan x="10" y="4378">- keep internal nedb _id separate from mongodb id</tspan>
<tspan x="10" y="4394">- enable integer id's in default crud api</tspan>
<tspan x="10" y="4410"></tspan>
<tspan x="10" y="4426">2016-01-16 01:40:32 +0800</tspan>
<tspan x="10" y="4442">- npm publish 2015.12.6</tspan>
<tspan x="10" y="4458">- rename assets/* to assets.*</tspan>
<tspan x="10" y="4474"></tspan>
<tspan x="10" y="4490">2016-01-11 17:16:43 +0800</tspan>
<tspan x="10" y="4506">- npm publish 2015.12.5</tspan>
<tspan x="10" y="4522">- add nedb backend</tspan>
<tspan x="10" y="4538">- rename swagger-ui.rollup.js to lib.swagger-ui.js</tspan>
<tspan x="10" y="4554">- add file index.css and rename asset swagger-ui.rollup.css to swagger-lite.css</tspan>
<tspan x="10" y="4570"></tspan>
<tspan x="10" y="4586">2016-01-10 21:52:32 +0800</tspan>
<tspan x="10" y="4602">- npm publish 2015.12.4</tspan>
<tspan x="10" y="4618">- shrink file swagger-ui.rollup.js</tspan>
<tspan x="10" y="4634">- add file swagger-ui.rollup.js</tspan>
<tspan x="10" y="4650">- add asset /swagger-lite.html</tspan>
<tspan x="10" y="4666"></tspan>
<tspan x="10" y="4682">2016-01-06 15:44:05 +0800</tspan>
<tspan x="10" y="4698">- npm publish 2015.12.3</tspan>
<tspan x="10" y="4714">- fix ui-wiggle for client-side validation error</tspan>
<tspan x="10" y="4730"></tspan>
<tspan x="10" y="4746">2016-01-05 22:51:11 +0800</tspan>
<tspan x="10" y="4762">- npm publish 2015.12.2</tspan>
<tspan x="10" y="4778">- add initial loading icon</tspan>
<tspan x="10" y="4794"></tspan>
<tspan x="10" y="4810">2016-01-04 02:21:43 +0800</tspan>
<tspan x="10" y="4826">- npm publish 2015.12.1</tspan>
<tspan x="10" y="4842">- migrate live-test-server from heroku to github, with browser emulation of server</tspan>
<tspan x="10" y="4858">- revamp local._OperationPrototypeExecute to mock ajax request to browser-emulated server</tspan>
<tspan x="10" y="4874">- remove ./Procfile</tspan>
<tspan x="10" y="4890"></tspan>
<tspan x="10" y="4906">2015-12-30 04:13:51 +0800</tspan>
<tspan x="10" y="4922">- npm publish 2015.11.10</tspan>
<tspan x="10" y="4938">- swagger-hack - resolve %2F in hashtag</tspan>
<tspan x="10" y="4954"></tspan>
<tspan x="10" y="4970">2015-12-24 15:42:05 +0800</tspan>
<tspan x="10" y="4986">- npm publish 2015.11.9</tspan>
<tspan x="10" y="5002">- add enum validation</tspan>
</text>
</svg>
