<svg height="5310" width="720" xmlns="http://www.w3.org/2000/svg">
<rect height="5310" fill="#555" width="720"></rect>
<text fill="#7f7" font-family="Courier New" font-size="12" xml:space="preserve">
<tspan x="10" y="26">2017-02-19 00:15:20 +0800</tspan>
<tspan x="10" y="42">- npm publish 2017.2.17</tspan>
<tspan x="10" y="58">- do not auto-uglify js-assets</tspan>
<tspan x="10" y="74">- revamp README.md</tspan>
<tspan x="10" y="90">- update lib.utility2</tspan>
<tspan x="10" y="106"></tspan>
<tspan x="10" y="122">2017-02-06 21:12:28 +0800</tspan>
<tspan x="10" y="138">- npm publish 2017.2.6</tspan>
<tspan x="10" y="154">- allow swagger-json url to be changed</tspan>
<tspan x="10" y="170">- allow swagger-ui operation to appear in multiple tags</tspan>
<tspan x="10" y="186">- rename assets.lib.swgg.* to assets.swgg.*</tspan>
<tspan x="10" y="202">- merge files lib.* into standaalone file assets.swgg.rollup.js</tspan>
<tspan x="10" y="218">- merge files lib.swgg.* into lib.swgg.js</tspan>
<tspan x="10" y="234"></tspan>
<tspan x="10" y="250">2017-01-12 12:41:11 +0800</tspan>
<tspan x="10" y="266">- npm publish 2017.1.12</tspan>
<tspan x="10" y="282">- update files lib.utility2.*</tspan>
<tspan x="10" y="298">- update documentation</tspan>
<tspan x="10" y="314"></tspan>
<tspan x="10" y="330">2016-12-31 19:25:20 +0800</tspan>
<tspan x="10" y="346">- npm publish 2016.12.30</tspan>
<tspan x="10" y="362">- revamp swgg.ui.js</tspan>
<tspan x="10" y="378"></tspan>
<tspan x="10" y="394">2016-12-26 15:05:22 +0800</tspan>
<tspan x="10" y="410">- rename file lib.swgg.json-schema.json</tspan>
<tspan x="10" y="426">- rename file lib.swgg.petstore.json</tspan>
<tspan x="10" y="442">- rename file lib.swgg.schema.json</tspan>
<tspan x="10" y="458">- rename file lib.swgg.ui.js</tspan>
<tspan x="10" y="474"></tspan>
<tspan x="10" y="490">2016-12-26 12:13:11 +0800</tspan>
<tspan x="10" y="506">- npm publish 2016.12.25</tspan>
<tspan x="10" y="522">- add spec-compliant collectionFormat parameter for arrays</tspan>
<tspan x="10" y="538">- merge github-crud into this package</tspan>
<tspan x="10" y="554">- add heroku-postbuild npm-script</tspan>
<tspan x="10" y="570"></tspan>
<tspan x="10" y="586">2016-12-11 12:22:05 +0800</tspan>
<tspan x="10" y="602">- fix shBuildDoc accidentally adding coverage to doc</tspan>
<tspan x="10" y="618"></tspan>
<tspan x="10" y="634">2016-12-11 12:05:29 +0800</tspan>
<tspan x="10" y="650">- npm publish 2016.12.1</tspan>
<tspan x="10" y="666">- merge utility2 and swgg namespace into local namespace</tspan>
<tspan x="10" y="682">- revamp user-login / user-logout to use standard json-web-encryption token</tspan>
<tspan x="10" y="698"></tspan>
<tspan x="10" y="714">2016-11-30 17:45:55 +0800</tspan>
<tspan x="10" y="730">- rename package from swagger-lite -&gt; swgg</tspan>
<tspan x="10" y="746"></tspan>
<tspan x="10" y="762">2016-11-30 02:48:10 +0800</tspan>
<tspan x="10" y="778">- npm publish 2016.11.2</tspan>
<tspan x="10" y="794">- merge swgg.middlewareJsonpStateInit into utility2._middlewareJsonpStateInit</tspan>
<tspan x="10" y="810">- db - fix persistence-cancel handling-behavior</tspan>
<tspan x="10" y="826">- utility2 - add env npm_package_nameAlias</tspan>
<tspan x="10" y="842"></tspan>
<tspan x="10" y="858">2016-11-23 11:55:35 +0800</tspan>
<tspan x="10" y="874">- npm publish 2016.11.1</tspan>
<tspan x="10" y="890">- make this package dependency-less</tspan>
<tspan x="10" y="906">- rename files index.* -&gt; lib.swgg.*</tspan>
<tspan x="10" y="922">- rename field _timeModified -&gt; _timeUpdated</tspan>
<tspan x="10" y="938">- fix cdn-links</tspan>
<tspan x="10" y="954"></tspan>
<tspan x="10" y="970">2016-11-21 10:22:45 +0800</tspan>
<tspan x="10" y="986">- npm publish 2016.10.2</tspan>
<tspan x="10" y="1002">- temporary fix for chrome render bug - https://bugs.chromium.org/p/chromium/issues/detail?id=66\</tspan>
<tspan x="10" y="1018">0671</tspan>
<tspan x="10" y="1034">- rename api-suffix *KeyUnique -&gt; *Id</tspan>
<tspan x="10" y="1050">- rename field createdAt -&gt; _timeCreated</tspan>
<tspan x="10" y="1066">- rename field updatedAt -&gt; _timeModified</tspan>
<tspan x="10" y="1082"></tspan>
<tspan x="10" y="1098">2016-10-17 21:10:49 +0800</tspan>
<tspan x="10" y="1114">- npm publish 2016.10.1</tspan>
<tspan x="10" y="1130">- migrate db from nedb-lite to db-lite</tspan>
<tspan x="10" y="1146">- streamline tests</tspan>
<tspan x="10" y="1162"></tspan>
<tspan x="10" y="1178">2016-10-02 12:04:31 +0800</tspan>
<tspan x="10" y="1194">- npm publish 2016.9.1</tspan>
<tspan x="10" y="1210">- update utility2 dependency</tspan>
<tspan x="10" y="1226"></tspan>
<tspan x="10" y="1242">2016-08-27 11:05:16 +0800</tspan>
<tspan x="10" y="1258">- npm publish 2016.8.1</tspan>
<tspan x="10" y="1274">- allow file export / import of nedb-database</tspan>
<tspan x="10" y="1290">- migrate nedb-api from swagger-lite to utility2</tspan>
<tspan x="10" y="1306">- rename collectDoc to dbRow and collection to dbTable</tspan>
<tspan x="10" y="1322"></tspan>
<tspan x="10" y="1338">2016-08-07 22:39:06 +0200</tspan>
<tspan x="10" y="1354">- npm publish 2016.7.2</tspan>
<tspan x="10" y="1370">- deploy standalone-app to heroku</tspan>
<tspan x="10" y="1386">- rename local.utility2.middlewareJsonpStateGet to local.utility2.middlewareJsonpStateInit</tspan>
<tspan x="10" y="1402"></tspan>
<tspan x="10" y="1418">2016-07-31 15:02:39 +0200</tspan>
<tspan x="10" y="1434">- npm publish 2016.7.1</tspan>
<tspan x="10" y="1450">- replace lib bcrypt and lib cryptojs with lib sjcl</tspan>
<tspan x="10" y="1466"></tspan>
<tspan x="10" y="1482">2016-07-01 03:17:59 +0200</tspan>
<tspan x="10" y="1498">- npm publish 2016.5.4</tspan>
<tspan x="10" y="1514">- fix internal tests for heroku backend</tspan>
<tspan x="10" y="1530"></tspan>
<tspan x="10" y="1546">2016-06-15 17:19:02 +0300</tspan>
<tspan x="10" y="1562">- npm publish 2016.5.2</tspan>
<tspan x="10" y="1578">- deploy standalone app to heroku test-server</tspan>
<tspan x="10" y="1594">- remove nedb-lite dependency</tspan>
<tspan x="10" y="1610">- add minified asset assets.app.min.js</tspan>
<tspan x="10" y="1626">- add 'run internal test' button in webpage</tspan>
<tspan x="10" y="1642">- add env var npm_config_mode_backend to disable utility2.serverLocalUrlTest</tspan>
<tspan x="10" y="1658"></tspan>
<tspan x="10" y="1674">2016-06-12 03:58:24 +0300</tspan>
<tspan x="10" y="1690">- npm publish 2016.5.2</tspan>
<tspan x="10" y="1706">- add standalone-app download-link in test-page</tspan>
<tspan x="10" y="1722">- ui - add button to reset nedb database</tspan>
<tspan x="10" y="1738"></tspan>
<tspan x="10" y="1754">2016-06-08 19:00:37 +0300</tspan>
<tspan x="10" y="1770">- npm publish 2016.5.1</tspan>
<tspan x="10" y="1786">- merge admin-ui into swagger-ui</tspan>
<tspan x="10" y="1802">- ui - re-implement reload feature</tspan>
<tspan x="10" y="1818">- move all swagger-backend-config into top-level swagger-property 'x-swgg-apiDict'</tspan>
<tspan x="10" y="1834">- remove unused postinstall script</tspan>
<tspan x="10" y="1850"></tspan>
<tspan x="10" y="1866">2016-05-30 15:00:02 +0300</tspan>
<tspan x="10" y="1882">- npm publish 2016.4.3</tspan>
<tspan x="10" y="1898">- datatable - add datatable resource-view</tspan>
<tspan x="10" y="1914">- datatable - add pagination</tspan>
<tspan x="10" y="1930">- datatable - add row deletion</tspan>
<tspan x="10" y="1946"></tspan>
<tspan x="10" y="1962">2016-05-20 17:44:04 +0300</tspan>
<tspan x="10" y="1978">- npm publish 2016.4.2</tspan>
<tspan x="10" y="1994">- replace swagger-tools dependency with function swgg.validateBySwagger</tspan>
<tspan x="10" y="2010">- validation - validate schema.default</tspan>
<tspan x="10" y="2026">- validation - validate schema.anyOf</tspan>
<tspan x="10" y="2042">- validation - replace x-swgg-inherit with schema.allOf</tspan>
<tspan x="10" y="2058">- rename operation crudFile* to file*</tspan>
<tspan x="10" y="2074">- rename operation crudUser* to user*</tspan>
<tspan x="10" y="2090">- add file lib.swagger.schema.json from http://swagger.io/v2/schema.json</tspan>
<tspan x="10" y="2106">- add extra constraints to function swgg.collectDocListRandomCreate</tspan>
<tspan x="10" y="2122">- ui - input element's valueEncoded can only be '', null, or undefined</tspan>
<tspan x="10" y="2138">- replace function swgg.schemaDereference with swgg.schemaNormalize</tspan>
<tspan x="10" y="2154"></tspan>
<tspan x="10" y="2170">2016-05-12 21:06:05 +0300</tspan>
<tspan x="10" y="2186">- npm publish 2016.4.1</tspan>
<tspan x="10" y="2202">- fix bug when a document's id is zero</tspan>
<tspan x="10" y="2218">- streamline ui</tspan>
<tspan x="10" y="2234">- remove Backbone, Handlebars, and jQuery dependencies from lib.swagger-ui.js</tspan>
<tspan x="10" y="2250">- enable multiple api endpoints with same operationId, but unique keyUnique</tspan>
<tspan x="10" y="2266">- add hooks middlewareCrudPre and middlewareCrudPost</tspan>
<tspan x="10" y="2282">- merge api crudCreateOrReplaceOne into crudCreateOrReplaceOneByKeyUnique</tspan>
<tspan x="10" y="2298">- merge api crudCreateOrUpdateOne and crudCreateOrUpdateOneByKeyUnique into crudUpdateOneByKeyUn\</tspan>
<tspan x="10" y="2314">ique</tspan>
<tspan x="10" y="2330"></tspan>
<tspan x="10" y="2346">2016-04-28 13:18:23 +0300</tspan>
<tspan x="10" y="2362">- npm publish 2016.3.1</tspan>
<tspan x="10" y="2378">- implement api GET /user/login</tspan>
<tspan x="10" y="2394">- implement api GET /user/logout</tspan>
<tspan x="10" y="2410">- add api crudUserLogout</tspan>
<tspan x="10" y="2426">- encode arrays as json-string in query-param</tspan>
<tspan x="10" y="2442">- fix crudFileGetOneByKeyUnique for serverLocal</tspan>
<tspan x="10" y="2458">- fix 0 statusCode in userLoginByPassword and userLogout api</tspan>
<tspan x="10" y="2474">- remove external dependency animate.css</tspan>
<tspan x="10" y="2490"></tspan>
<tspan x="10" y="2506">2016-04-20 01:32:39 +0300</tspan>
<tspan x="10" y="2522">- npm publish 2016.2.3</tspan>
<tspan x="10" y="2538">- split swgg.middlewareValidate into swgg.middlewareRouter and swgg.middlewareValidate</tspan>
<tspan x="10" y="2554">- merge collection BuiltinFile into collection TestModelCrud in example.js</tspan>
<tspan x="10" y="2570">- merge collection BuiltinUser into collection User in example.js</tspan>
<tspan x="10" y="2586">- add 'multipleOf' number-constraint to function swgg.collectDocRandomCreate</tspan>
<tspan x="10" y="2602">- add function swgg.collectDocListRandomCreate</tspan>
<tspan x="10" y="2618"></tspan>
<tspan x="10" y="2634">2016-04-03 18:55:13 +0800</tspan>
<tspan x="10" y="2650">- npm publish 2016.2.2</tspan>
<tspan x="10" y="2666">- implement api POST /pet/{petId}/uploadImage</tspan>
<tspan x="10" y="2682">- fix Uncaught TypeError: this.trigger is not a function</tspan>
<tspan x="10" y="2698">- fix curl example missing body</tspan>
<tspan x="10" y="2714">- add multipart/form-data ability to swgg.apiAjax</tspan>
<tspan x="10" y="2730">- add function swgg.collectDocRandomCreate to create random collectDoc</tspan>
<tspan x="10" y="2746">- merge crudFileUploadOneByForm into crudFileUploadManyByForm</tspan>
<tspan x="10" y="2762">- add function swgg.urlBaseGet</tspan>
<tspan x="10" y="2778">- cover example.js</tspan>
<tspan x="10" y="2794"></tspan>
<tspan x="10" y="2810">2016-03-19 17:17:40 +0800</tspan>
<tspan x="10" y="2826">- npm publish 2016.2.1</tspan>
<tspan x="10" y="2842">- cleanup Backbone and Handlebars in lib.swagger-ui.js</tspan>
<tspan x="10" y="2858">- fix file-upload for serverLocal</tspan>
<tspan x="10" y="2874">- add function swgg.jwtEncodedDecodeAndDecrypt, swgg.nedbReset</tspan>
<tspan x="10" y="2890">- use rolled-up asset /assets.utility2.rollup.js</tspan>
<tspan x="10" y="2906">- move request.swgg* objects to namespace request.swgg</tspan>
<tspan x="10" y="2922"></tspan>
<tspan x="10" y="2938">2016-03-15 15:32:30 +0800</tspan>
<tspan x="10" y="2954">- npm publish 2016.1.6</tspan>
<tspan x="10" y="2970">- admin-ui - fix datatables crashing when rows are empty</tspan>
<tspan x="10" y="2986">- add api crudFileGetOneByKeyUnique, crudFileUploadManyByForm, crudFileUploadOneByForm</tspan>
<tspan x="10" y="3002">- add multipart/form-data handling in swgg.middlewareBodyParse</tspan>
<tspan x="10" y="3018">- allow jsonapi's response.data to be an empty array</tspan>
<tspan x="10" y="3034">- add '_Builtin' prefix to swagger-lite's builtin swagger-definition names</tspan>
<tspan x="10" y="3050">- do not send readonly properties in swgg.apiDict clients</tspan>
<tspan x="10" y="3066">- in swgg.validateByPropertyDef, add regex pattern validation according to http://json-schema.or\</tspan>
<tspan x="10" y="3082">g/latest/json-schema-validation.html#anchor33</tspan>
<tspan x="10" y="3098">- admin-ui add x-queryRange ui</tspan>
<tspan x="10" y="3114"></tspan>
<tspan x="10" y="3130">2016-03-09 00:16:59 +0800</tspan>
<tspan x="10" y="3146">- npm publish 2016.1.5</tspan>
<tspan x="10" y="3162">- admin-ui - fix input validation bugs</tspan>
<tspan x="10" y="3178">- replace swgg.api with swgg.apiDict</tspan>
<tspan x="10" y="3194"></tspan>
<tspan x="10" y="3210">2016-03-08 15:11:20 +0800</tspan>
<tspan x="10" y="3226">- consolidate browser state-init into jsonp call stateInit</tspan>
<tspan x="10" y="3242">- admin-ui - add swagger-form validation to form-inputs</tspan>
<tspan x="10" y="3258">- admin-ui - implement date-time/dropdown/boolean form-inputs</tspan>
<tspan x="10" y="3274">- admin-ui - integrate oauth-jwt user-login</tspan>
<tspan x="10" y="3290">- admin-ui - merge all dt state-info into swgg.dt object</tspan>
<tspan x="10" y="3306">- admin-ui - keyUnique crud operations can use arbitray keys, instead of only 'id' key</tspan>
<tspan x="10" y="3322">- admin-ui - add x-title option for rendering labels for swagger params and property inputs</tspan>
<tspan x="10" y="3338">- admin-ui - crud-keyUnique operations can depend on arbitrary unique-key (previously tied to 'i\</tspan>
<tspan x="10" y="3354">d' key)</tspan>
<tspan x="10" y="3370">- rename swgg.apiUpdate to swgg.apiDictUpdate</tspan>
<tspan x="10" y="3386">- flatten swgg.cacheDict into swgg</tspan>
<tspan x="10" y="3402"></tspan>
<tspan x="10" y="3418">2016-03-03 14:57:31 +0800</tspan>
<tspan x="10" y="3434">- npm publish 2016.1.4</tspan>
<tspan x="10" y="3450">- add function swgg.isNullOrUndefined</tspan>
<tspan x="10" y="3466">- add boolean/integer/number/string schema-properties as params in crudGetManyByQuery</tspan>
<tspan x="10" y="3482">- admin-ui - implement boolean/date-time/enum input types</tspan>
<tspan x="10" y="3498">- admin-ui - implement crud CREATE</tspan>
<tspan x="10" y="3514">- allow arbitrary name for body-param in local.swgg.middlewareCrud</tspan>
<tspan x="10" y="3530">- add 'x-notRequired' options to pathObject params to override 'required' option</tspan>
<tspan x="10" y="3546">- add 'x-validateUnusedDefinition' option in swgg.validateBySwagger to ignore unused definitions</tspan>
<tspan x="10" y="3562"></tspan>
<tspan x="10" y="3578">2016-02-29 19:54:22 +0800</tspan>
<tspan x="10" y="3594">- npm publish 2016.1.3</tspan>
<tspan x="10" y="3610">- add dependency nedb-lite</tspan>
<tspan x="10" y="3626">- admin-ui - integrate serverLocal into admin-ui</tspan>
<tspan x="10" y="3642">- use jsonp to init default browser-state instead of with hard-coded template</tspan>
<tspan x="10" y="3658">- split index.js into index.js and lib.admin-ui.js</tspan>
<tspan x="10" y="3674">- admin-ui - hook utility2.assert and utility2.onErrorDefault with bootstrap alert;</tspan>
<tspan x="10" y="3690">- admin-ui - add crud UPDATE</tspan>
<tspan x="10" y="3706">- admin-ui - show swagger-property-type in thead / tfoot / form input</tspan>
<tspan x="10" y="3722">- add keyAlias param in operationId</tspan>
<tspan x="10" y="3738">- swgg.apiUpdate will now error-log schema-validation-errors instead of throwing them</tspan>
<tspan x="10" y="3754">- add file-server</tspan>
<tspan x="10" y="3770">- add admin-ui crud DELETE</tspan>
<tspan x="10" y="3786"></tspan>
<tspan x="10" y="3802">2016-02-22 11:51:07 +0800</tspan>
<tspan x="10" y="3818">- npm publish 2016.1.2</tspan>
<tspan x="10" y="3834">- work-in-progress on experimental, swagger-based, admin-ui</tspan>
<tspan x="10" y="3850">- add query macro for crudGetManyByQuery</tspan>
<tspan x="10" y="3866">- add crud-tests for petstore api</tspan>
<tspan x="10" y="3882">- move static assets to /external dir, which will be fetched during postinstall</tspan>
<tspan x="10" y="3898"></tspan>
<tspan x="10" y="3914">2016-02-14 21:43:25 +0800</tspan>
<tspan x="10" y="3930">- npm publish 2016.1.1</tspan>
<tspan x="10" y="3946">- implement petstore backend with nedb</tspan>
<tspan x="10" y="3962">- remove swagger-ui-lite dependency</tspan>
<tspan x="10" y="3978">- fix missing createdAt field in nedb update-replace</tspan>
<tspan x="10" y="3994">- add default-crud-api crudCreateOrReplaceMany, crudCreateOrUpdateOne, and crudCreateOrUpdateOne\</tspan>
<tspan x="10" y="4010">ByKeyUnique</tspan>
<tspan x="10" y="4026">- keep internal nedb _id separate from mongodb id</tspan>
<tspan x="10" y="4042">- enable integer id's in default crud api</tspan>
<tspan x="10" y="4058"></tspan>
<tspan x="10" y="4074">2016-01-16 01:40:32 +0800</tspan>
<tspan x="10" y="4090">- npm publish 2015.12.6</tspan>
<tspan x="10" y="4106">- rename assets/* to assets.*</tspan>
<tspan x="10" y="4122"></tspan>
<tspan x="10" y="4138">2016-01-11 17:16:43 +0800</tspan>
<tspan x="10" y="4154">- npm publish 2015.12.5</tspan>
<tspan x="10" y="4170">- add nedb backend</tspan>
<tspan x="10" y="4186">- rename swagger-ui.rollup.js to lib.swagger-ui.js</tspan>
<tspan x="10" y="4202">- add file index.css and rename asset swagger-ui.rollup.css to swagger-lite.css</tspan>
<tspan x="10" y="4218"></tspan>
<tspan x="10" y="4234">2016-01-10 21:52:32 +0800</tspan>
<tspan x="10" y="4250">- npm publish 2015.12.4</tspan>
<tspan x="10" y="4266">- shrink file swagger-ui.rollup.js</tspan>
<tspan x="10" y="4282">- add file swagger-ui.rollup.js</tspan>
<tspan x="10" y="4298">- add asset /swagger-lite.html</tspan>
<tspan x="10" y="4314"></tspan>
<tspan x="10" y="4330">2016-01-06 15:44:05 +0800</tspan>
<tspan x="10" y="4346">- npm publish 2015.12.3</tspan>
<tspan x="10" y="4362">- fix ui-wiggle for client-side validation error</tspan>
<tspan x="10" y="4378"></tspan>
<tspan x="10" y="4394">2016-01-05 22:51:11 +0800</tspan>
<tspan x="10" y="4410">- npm publish 2015.12.2</tspan>
<tspan x="10" y="4426">- add initial loading icon</tspan>
<tspan x="10" y="4442"></tspan>
<tspan x="10" y="4458">2016-01-04 02:21:43 +0800</tspan>
<tspan x="10" y="4474">- npm publish 2015.12.1</tspan>
<tspan x="10" y="4490">- migrate live-test-server from heroku to github, with browser emulation of server</tspan>
<tspan x="10" y="4506">- revamp local._OperationPrototypeExecute to mock ajax request to browser-emulated server</tspan>
<tspan x="10" y="4522">- remove ./Procfile</tspan>
<tspan x="10" y="4538"></tspan>
<tspan x="10" y="4554">2015-12-30 04:13:51 +0800</tspan>
<tspan x="10" y="4570">- npm publish 2015.11.10</tspan>
<tspan x="10" y="4586">- swagger-hack - resolve %2F in hashtag</tspan>
<tspan x="10" y="4602"></tspan>
<tspan x="10" y="4618">2015-12-24 15:42:05 +0800</tspan>
<tspan x="10" y="4634">- npm publish 2015.11.9</tspan>
<tspan x="10" y="4650">- add enum validation</tspan>
<tspan x="10" y="4666"></tspan>
<tspan x="10" y="4682">2015-12-15 03:50:39 +0800</tspan>
<tspan x="10" y="4698">- npm publish 2015.11.8</tspan>
<tspan x="10" y="4714">- move most of node js-env code to shared js-env</tspan>
<tspan x="10" y="4730">- working nedb interface</tspan>
<tspan x="10" y="4746">- deployed heroku test-server</tspan>
<tspan x="10" y="4762">- wiggle frontend input during validation error</tspan>
<tspan x="10" y="4778">- update to uglified swagger-ui-lite</tspan>
<tspan x="10" y="4794">- remove #/definitions/JsonapiResource and #/definitions/JsonapiError</tspan>
<tspan x="10" y="4810"></tspan>
<tspan x="10" y="4826">2015-12-04 21:21:07 +0800</tspan>
<tspan x="10" y="4842">- npm publish 2015.11.7</tspan>
<tspan x="10" y="4858">- add function swgg.serverRespondJsonapi</tspan>
<tspan x="10" y="4874">- remove #/definitions/Object and #/definitions/Undefined</tspan>
<tspan x="10" y="4890">- add _schemaName to pathObject</tspan>
<tspan x="10" y="4906"></tspan>
<tspan x="10" y="4922">2015-11-26 03:50:55 +0800</tspan>
<tspan x="10" y="4938">- npm publish 2015.11.6</tspan>
<tspan x="10" y="4954">- rename crudApi to pathObjectDefault</tspan>
<tspan x="10" y="4970">- rename uniqueKey to keyUnique</tspan>
<tspan x="10" y="4986">- rename methodPath to pathObject</tspan>
<tspan x="10" y="5002">- rename swlt to swgg</tspan>
<tspan x="10" y="5018">- rename tagName to pathPrefix</tspan>
<tspan x="10" y="5034"></tspan>
<tspan x="10" y="5050">2015-11-25 15:42:20 +0800</tspan>
<tspan x="10" y="5066">- npm publish 2015.11.4</tspan>
<tspan x="10" y="5082">- update to swagger-ui-lite @ 2015.11.4</tspan>
<tspan x="10" y="5098"></tspan>
<tspan x="10" y="5114">2015-11-25 09:14:42 +0800</tspan>
<tspan x="10" y="5130">- npm publish 2015.11.3</tspan>
<tspan x="10" y="5146">- add auto-generation of crud feature</tspan>
<tspan x="10" y="5162"></tspan>
<tspan x="10" y="5178">2015-11-24 15:13:41 +0800</tspan>
<tspan x="10" y="5194">- npm publish 2015.11.2</tspan>
<tspan x="10" y="5210">- working swagger validation tests</tspan>
<tspan x="10" y="5226">- remove mongodb dependency</tspan>
<tspan x="10" y="5242"></tspan>
<tspan x="10" y="5258">2015-11-22 23:47:45 +0800</tspan>
<tspan x="10" y="5274">- npm publish 2015.11.1</tspan>
<tspan x="10" y="5290">- initial creation derived from swagger-mongodb</tspan>
</text>
</svg>
